<svg xmlns="http://www.w3.org/2000/svg" viewBox="0 0 1600 760">
<defs>
 <linearGradient id="wall" x1="0" y1="0" x2="1" y2="1"><stop stop-color="#3d2d2b"/><stop offset=".55" stop-color="#8c5a49"/><stop offset="1" stop-color="#d8a162"/></linearGradient>
 <linearGradient id="sun" x1="0" y1="0" x2="0" y2="1"><stop stop-color="#ffd58a"/><stop offset="1" stop-color="#e77d57"/></linearGradient>
 <linearGradient id="floor" x1="0" y1="0" x2="1" y2="0"><stop stop-color="#4b2f2b"/><stop offset="1" stop-color="#8a5f4f"/></linearGradient>
 <filter id="blur"><feGaussianBlur stdDeviation="18"/></filter>
</defs>
<rect width="1600" height="760" fill="url(#wall)"/>
<rect x="970" y="70" width="520" height="360" rx="20" fill="#243849" stroke="#ecd0a4" stroke-width="12"/>
<rect x="990" y="88" width="480" height="324" fill="url(#sun)"/>
<circle cx="1315" cy="180" r="54" fill="#ffe7aa" opacity=".95"/>
<path d="M990 318 C1100 260 1180 350 1275 300 C1360 258 1420 285 1470 250 L1470 412 L990 412Z" fill="#587469" opacity=".85"/>
<path d="M990 355 C1120 310 1200 390 1320 340 C1390 310 1440 320 1470 305 L1470 412 L990 412Z" fill="#263f46"/>
<rect x="0" y="560" width="1600" height="200" fill="url(#floor)"/>
<rect x="60" y="55" width="300" height="470" rx="18" fill="#241c20" opacity=".95"/>
<g fill="#c69b6d"><rect x="85" y="90" width="250" height="16"/><rect x="85" y="190" width="250" height="16"/><rect x="85" y="290" width="250" height="16"/><rect x="85" y="390" width="250" height="16"/></g>
<g fill="#7e5965"><rect x="98" y="112" width="26" height="64"/><rect x="132" y="125" width="38" height="51"/><rect x="178" y="105" width="24" height="71"/><rect x="212" y="118" width="48" height="58"/><rect x="268" y="128" width="26" height="48"/></g>
<g fill="#5a7761"><ellipse cx="415" cy="180" rx="95" ry="35" transform="rotate(-22 415 180)"/><ellipse cx="435" cy="235" rx="100" ry="36" transform="rotate(22 435 235)"/><ellipse cx="390" cy="290" rx="90" ry="32" transform="rotate(-18 390 290)"/></g>
<rect x="392" y="245" width="48" height="150" rx="22" fill="#8d6b49"/>
<rect x="360" y="382" width="120" height="72" rx="18" fill="#6c432f"/>
<rect x="510" y="470" width="470" height="150" rx="38" fill="#6d3d35"/>
<rect x="550" y="430" width="380" height="115" rx="34" fill="#c8865c"/>
<rect x="570" y="450" width="130" height="82" rx="28" fill="#d9a06e"/><rect x="720" y="450" width="160" height="82" rx="28" fill="#b86845"/>
<ellipse cx="1130" cy="605" rx="250" ry="70" fill="#2b2024" opacity=".5"/>
<rect x="1060" y="490" width="300" height="26" rx="13" fill="#5a3c31"/><rect x="1090" y="515" width="18" height="105" fill="#3d2a26"/><rect x="1305" y="515" width="18" height="105" fill="#3d2a26"/>
<circle cx="1210" cy="458" r="36" fill="#ffdc8f" filter="url(#blur)" opacity=".7"/><rect x="1194" y="386" width="32" height="78" rx="12" fill="#4a352f"/><path d="M1160 397 Q1210 345 1260 397Z" fill="#f4d7a3"/>
<rect width="1600" height="760" fill="url(#wall)" opacity=".08"/>
</svg>
